<svg width="119" height="68" viewBox="0 0 119 68" fill="none" xmlns="http://www.w3.org/2000/svg">
<g filter="url(#filter0_d_739_159)">
<g filter="url(#filter1_d_739_159)">
<path d="M25.1084 26.4419C27.2395 27.165 27.3938 27.2155 27.4053 27.2183C27.405 27.2196 27.405 27.222 27.4043 27.2241C27.4014 27.233 27.3961 27.2497 27.3887 27.2729C27.3733 27.3213 27.3485 27.4006 27.3174 27.5063C27.255 27.7185 27.1653 28.0407 27.0654 28.4536C26.8648 29.283 26.6262 30.4676 26.4785 31.8618C26.1791 34.6888 26.2771 38.1794 27.6377 41.3218C28.953 44.3592 31.5261 47.2678 36.6172 48.9565C41.3244 50.5178 48.2606 51.0551 58.3789 49.4839L51.9111 46.9849C50.3491 46.3813 49.5724 44.626 50.1758 43.064C50.7793 41.502 52.5346 40.7243 54.0967 41.3276L66.9971 46.312C67.3723 46.457 67.7002 46.6709 67.9766 46.9302C68.0556 46.9807 68.1335 47.0345 68.209 47.0933C69.5306 48.1214 69.7681 50.0263 68.7402 51.3481L60.25 62.2651C59.2218 63.5868 57.317 63.8244 55.9951 62.7964C54.6733 61.7682 54.4348 59.8634 55.4629 58.5415L58.7324 54.3364C48.3621 55.906 40.7076 55.4253 35.0898 53.562C28.6969 51.4415 25.0542 47.5649 23.1855 43.2495C21.3625 39.039 21.3085 34.6075 21.6533 31.3511C21.8278 29.7039 22.1096 28.3053 22.3496 27.313C22.4698 26.816 22.5804 26.4171 22.6631 26.1362C22.7043 25.9962 22.7394 25.8848 22.7646 25.8052C22.7772 25.7658 22.7871 25.7332 22.7949 25.7095C22.7988 25.6978 22.8021 25.6869 22.8047 25.6792C22.8059 25.6756 22.8076 25.6721 22.8086 25.6694C22.809 25.6682 22.8094 25.6664 22.8096 25.6655C22.8101 25.6639 22.8112 25.6625 25.1084 26.4419Z" fill="#35989D"/>
</g>
<circle cx="26.6402" cy="21.5294" r="3.33553" fill="#35989D"/>
</g>
<g filter="url(#filter2_d_739_159)">
<path d="M87.168 40V22.2665H92.5607V40H87.168ZM89.8644 20.2616C89.0117 20.2616 88.2742 19.9505 87.652 19.3282C87.0298 18.706 86.7187 17.9685 86.7187 17.1159C86.7187 16.2632 87.0298 15.5257 87.652 14.9035C88.2742 14.2582 89.0117 13.9356 89.8644 13.9356C90.717 13.9356 91.4545 14.2582 92.0767 14.9035C92.6989 15.5257 93.0101 16.2632 93.0101 17.1159C93.0101 17.9685 92.6989 18.706 92.0767 19.3282C91.4545 19.9505 90.717 20.2616 89.8644 20.2616Z" fill="#68A779"/>
</g>
<g filter="url(#filter3_d_739_159)">
<path d="M70.6758 24.2026H70.7793C71.125 23.7188 71.5517 23.3032 72.0586 22.9575C72.5885 22.589 73.1651 22.3127 73.7871 22.1284C74.4322 21.9441 75.1119 21.8521 75.8262 21.8521C77.5084 21.8521 78.9835 22.2322 80.251 22.9927C81.5183 23.7531 82.5093 24.8017 83.2236 26.1382C83.961 27.4747 84.33 29.042 84.3301 30.8394C84.3301 32.222 84.1106 33.501 83.6729 34.6763C83.235 35.8515 82.6011 36.8777 81.7715 37.7534C80.965 38.6059 79.9739 39.2623 78.7988 39.7231C77.6467 40.184 76.3219 40.4145 74.8242 40.4146C72.9115 40.4146 71.2403 40.0232 69.8115 39.2397C68.3828 38.4562 67.2767 37.3381 66.4932 35.8862C65.7097 34.4345 65.3174 32.7408 65.3174 30.8052V14.7651H70.6758V24.2026ZM105.598 21.8521C107.579 21.8521 109.262 22.2667 110.645 23.0962C112.05 23.9027 113.122 25.0211 113.859 26.4497C114.62 27.8553 115 29.4339 115 31.1851V40.0005H109.745V37.1655H109.607C109.285 37.7877 108.869 38.3519 108.362 38.8589C107.855 39.3428 107.233 39.724 106.496 40.0005C105.782 40.277 104.929 40.4145 103.938 40.4146C102.371 40.4146 100.988 40.0112 99.79 39.2046C98.5918 38.398 97.6585 37.3151 96.9902 35.9556C96.322 34.5729 95.9873 33.0169 95.9873 31.2886C95.9874 29.4912 96.3796 27.8895 97.1631 26.4839C97.9466 25.0552 99.0527 23.9258 100.481 23.0962C101.933 22.2667 103.639 21.8521 105.598 21.8521ZM18.1729 26.5532H10.4639C10.1416 26.5533 9.86505 26.6567 9.63477 26.8638C9.42744 27.0711 9.32332 27.3251 9.32324 27.6245C9.32324 27.9471 9.42744 28.2242 9.63477 28.4546C9.86507 28.6618 10.1415 28.765 10.4639 28.7651H13.5059C14.7964 28.7651 15.9034 28.9613 16.8252 29.353C17.7698 29.7217 18.496 30.3214 19.0029 31.1509C19.5328 31.9804 19.7978 33.0524 19.7979 34.3657C19.7978 35.4024 19.5327 36.3473 19.0029 37.1997C18.496 38.0523 17.8044 38.7328 16.9287 39.2397C16.076 39.7467 15.1076 40.0005 14.0244 40.0005H4.72559V35.7485H13.2646C13.495 35.7485 13.7024 35.702 13.8867 35.6099C14.0709 35.4947 14.2208 35.3449 14.3359 35.1606C14.4511 34.9763 14.5088 34.7801 14.5088 34.5728C14.5087 34.3425 14.4511 34.1349 14.3359 33.9507C14.2207 33.7664 14.071 33.6278 13.8867 33.5356C13.7025 33.4205 13.4949 33.3628 13.2646 33.3628H10.1533C9.0012 33.3628 7.95258 33.1787 7.00781 32.8101C6.08604 32.4183 5.34799 31.8188 4.79492 31.0122C4.26502 30.1826 4 29.1108 4 27.7974C4.00005 26.7835 4.24169 25.8613 4.72559 25.0317C5.23257 24.2022 5.91301 23.5338 6.76562 23.0269C7.64127 22.52 8.59784 22.2661 9.63477 22.2661H18.1729V26.5532ZM52.9766 21.8521C54.7279 21.8521 56.2375 22.1858 57.5049 22.854C58.7723 23.5223 59.752 24.4444 60.4434 25.6196C61.1346 26.7718 61.4804 28.0742 61.4805 29.5259V40.0005H56.0879V29.6987C56.0878 29.1227 55.9372 28.6039 55.6377 28.1431C55.3612 27.6593 54.9809 27.2678 54.4971 26.9683C54.0132 26.6687 53.4601 26.5181 52.8379 26.5181C52.2158 26.5181 51.6514 26.6688 51.1445 26.9683C50.6607 27.2678 50.2804 27.6593 50.0039 28.1431C49.7274 28.6039 49.5889 29.1227 49.5889 29.6987V40.0005H44.2305V29.6987C44.2304 29.1227 44.0808 28.6039 43.7812 28.1431C43.5047 27.6592 43.1124 27.2678 42.6055 26.9683C42.1216 26.6688 41.5684 26.5181 40.9463 26.5181C40.3243 26.5181 39.7598 26.6688 39.2529 26.9683C38.7692 27.2678 38.3888 27.6593 38.1123 28.1431C37.8358 28.6039 37.6973 29.1227 37.6973 29.6987V40.0005H32.3389V29.5259C32.3389 28.0741 32.6735 26.7718 33.3418 25.6196C34.0332 24.4444 35.0129 23.5223 36.2803 22.854C37.5477 22.1858 39.0573 21.8521 40.8086 21.8521C41.6842 21.8521 42.4911 21.9552 43.2285 22.1626C43.8736 22.3239 44.4656 22.5478 45.0049 22.8325L45.4619 23.0825C45.9861 23.3799 46.4401 23.7301 46.8232 24.1333H46.8926C47.3534 23.6725 47.8833 23.2801 48.4824 22.9575C49.1046 22.6119 49.7851 22.3469 50.5225 22.1626C51.2828 21.9553 52.101 21.8521 52.9766 21.8521ZM74.8242 26.5532C73.9946 26.5532 73.2677 26.7605 72.6455 27.1753C72.0466 27.567 71.5862 28.1092 71.2637 28.8003C70.9411 29.4916 70.7793 30.2753 70.7793 31.1509C70.7793 32.0264 70.9411 32.8214 71.2637 33.5356C71.5862 34.2268 72.0466 34.7801 72.6455 35.1948C73.2677 35.5866 73.9946 35.7827 74.8242 35.7827C75.6536 35.7826 76.3677 35.5865 76.9668 35.1948C77.5659 34.78 78.027 34.227 78.3496 33.5356C78.6952 32.8214 78.8681 32.0264 78.8682 31.1509C78.8681 30.2754 78.6952 29.4915 78.3496 28.8003C78.027 28.109 77.5659 27.567 76.9668 27.1753C76.3678 26.7607 75.6536 26.5533 74.8242 26.5532ZM105.528 26.5532C104.699 26.5532 103.973 26.7606 103.351 27.1753C102.728 27.567 102.255 28.109 101.933 28.8003C101.61 29.4914 101.449 30.2634 101.449 31.1157C101.449 31.9914 101.61 32.7871 101.933 33.5015C102.255 34.2158 102.728 34.78 103.351 35.1948C103.973 35.5866 104.699 35.7827 105.528 35.7827C106.335 35.7827 107.038 35.5866 107.637 35.1948C108.259 34.7801 108.731 34.2156 109.054 33.5015C109.376 32.7871 109.538 31.9914 109.538 31.1157C109.538 30.2633 109.376 29.4915 109.054 28.8003C108.731 28.109 108.259 27.567 107.637 27.1753C107.038 26.7606 106.335 26.5533 105.528 26.5532Z" fill="#FDFDFD"/>
</g>
<defs>
<filter id="filter0_d_739_159" x="17.4873" y="14.1938" width="55.8916" height="53.2415" filterUnits="userSpaceOnUse" color-interpolation-filters="sRGB">
<feFlood flood-opacity="0" result="BackgroundImageFix"/>
<feColorMatrix in="SourceAlpha" type="matrix" values="0 0 0 0 0 0 0 0 0 0 0 0 0 0 0 0 0 0 127 0" result="hardAlpha"/>
<feOffset/>
<feGaussianBlur stdDeviation="2"/>
<feComposite in2="hardAlpha" operator="out"/>
<feColorMatrix type="matrix" values="0 0 0 0 0.0588235 0 0 0 0 0.129412 0 0 0 0 0.164706 0 0 0 0.5 0"/>
<feBlend mode="normal" in2="BackgroundImageFix" result="effect1_dropShadow_739_159"/>
<feBlend mode="normal" in="SourceGraphic" in2="effect1_dropShadow_739_159" result="shape"/>
</filter>
<filter id="filter1_d_739_159" x="17.4873" y="21.6653" width="55.8916" height="45.77" filterUnits="userSpaceOnUse" color-interpolation-filters="sRGB">
<feFlood flood-opacity="0" result="BackgroundImageFix"/>
<feColorMatrix in="SourceAlpha" type="matrix" values="0 0 0 0 0 0 0 0 0 0 0 0 0 0 0 0 0 0 127 0" result="hardAlpha"/>
<feOffset/>
<feGaussianBlur stdDeviation="2"/>
<feComposite in2="hardAlpha" operator="out"/>
<feColorMatrix type="matrix" values="0 0 0 0 0 0 0 0 0 0 0 0 0 0 0 0 0 0 0.25 0"/>
<feBlend mode="normal" in2="BackgroundImageFix" result="effect1_dropShadow_739_159"/>
<feBlend mode="normal" in="SourceGraphic" in2="effect1_dropShadow_739_159" result="shape"/>
</filter>
<filter id="filter2_d_739_159" x="82.7188" y="9.93555" width="14.291" height="34.0645" filterUnits="userSpaceOnUse" color-interpolation-filters="sRGB">
<feFlood flood-opacity="0" result="BackgroundImageFix"/>
<feColorMatrix in="SourceAlpha" type="matrix" values="0 0 0 0 0 0 0 0 0 0 0 0 0 0 0 0 0 0 127 0" result="hardAlpha"/>
<feOffset/>
<feGaussianBlur stdDeviation="2"/>
<feComposite in2="hardAlpha" operator="out"/>
<feColorMatrix type="matrix" values="0 0 0 0 0.0588235 0 0 0 0 0.129412 0 0 0 0 0.164706 0 0 0 0.5 0"/>
<feBlend mode="normal" in2="BackgroundImageFix" result="effect1_dropShadow_739_159"/>
<feBlend mode="normal" in="SourceGraphic" in2="effect1_dropShadow_739_159" result="shape"/>
</filter>
<filter id="filter3_d_739_159" x="0" y="10.7651" width="119" height="33.6494" filterUnits="userSpaceOnUse" color-interpolation-filters="sRGB">
<feFlood flood-opacity="0" result="BackgroundImageFix"/>
<feColorMatrix in="SourceAlpha" type="matrix" values="0 0 0 0 0 0 0 0 0 0 0 0 0 0 0 0 0 0 127 0" result="hardAlpha"/>
<feOffset/>
<feGaussianBlur stdDeviation="2"/>
<feComposite in2="hardAlpha" operator="out"/>
<feColorMatrix type="matrix" values="0 0 0 0 0.0588235 0 0 0 0 0.129412 0 0 0 0 0.164706 0 0 0 0.5 0"/>
<feBlend mode="normal" in2="BackgroundImageFix" result="effect1_dropShadow_739_159"/>
<feBlend mode="normal" in="SourceGraphic" in2="effect1_dropShadow_739_159" result="shape"/>
</filter>
</defs>
</svg>
