<svg width="368" height="80" viewBox="0 0 368 80" fill="none" xmlns="http://www.w3.org/2000/svg">
<rect x="2.65021" y="2.65021" width="362.7" height="74.2058" rx="37.1029" fill="url(#paint0_linear_490_3120)" stroke="#FEFEFE" stroke-width="5.30041"/>
<path d="M94.6254 50.3453C93.1676 50.3453 91.8631 50.0959 90.7122 49.5972C89.5804 49.0984 88.6789 48.3695 88.0075 47.4104C87.3553 46.4512 87.0196 45.2907 87.0004 43.9288H91.115C91.1342 44.5234 91.2781 45.0605 91.5466 45.5401C91.8344 46.0196 92.2372 46.4033 92.7551 46.691C93.2731 46.9596 93.8869 47.0939 94.5966 47.0939C95.2105 47.0939 95.738 46.9979 96.1792 46.8061C96.6396 46.6143 96.9944 46.3362 97.2438 45.9717C97.5124 45.6072 97.6467 45.166 97.6467 44.6481C97.6467 44.0726 97.5028 43.5931 97.215 43.2094C96.9273 42.8066 96.5341 42.4709 96.0353 42.2023C95.5366 41.9338 94.9611 41.694 94.3089 41.483C93.6759 41.2528 93.0141 41.0226 92.3235 40.7924C90.7314 40.2553 89.5133 39.5552 88.6693 38.692C87.8444 37.8287 87.432 36.6874 87.432 35.2679C87.432 34.0594 87.7197 33.0331 88.2952 32.1891C88.8899 31.3259 89.7051 30.6641 90.741 30.2037C91.7768 29.7433 92.9565 29.5132 94.2801 29.5132C95.6421 29.5132 96.8314 29.7529 97.8481 30.2325C98.8839 30.6929 99.6992 31.3643 100.294 32.2467C100.908 33.129 101.224 34.1649 101.243 35.3542H97.1C97.0808 34.8938 96.9465 34.4718 96.6971 34.0882C96.4669 33.6853 96.1408 33.3688 95.7188 33.1386C95.2968 32.8893 94.7981 32.7646 94.2226 32.7646C93.7047 32.7454 93.2443 32.8221 92.8415 32.9948C92.4386 33.1674 92.1125 33.4168 91.8631 33.7429C91.633 34.069 91.5179 34.491 91.5179 35.0089C91.5179 35.4885 91.633 35.8913 91.8631 36.2174C92.0933 36.5435 92.4194 36.8313 92.8415 37.0806C93.2635 37.3108 93.7526 37.5314 94.3089 37.7424C94.8844 37.9342 95.5174 38.1453 96.208 38.3754C97.2246 38.7207 98.1454 39.1331 98.9702 39.6127C99.8143 40.0731 100.486 40.6773 100.984 41.4254C101.483 42.1736 101.733 43.1519 101.733 44.3604C101.733 45.4346 101.454 46.4225 100.898 47.324C100.361 48.2256 99.5649 48.9546 98.5099 49.5108C97.474 50.0671 96.1792 50.3453 94.6254 50.3453ZM111.368 50.3453C110.006 50.3453 108.769 50.0288 107.656 49.3958C106.543 48.7627 105.661 47.8803 105.009 46.7486C104.376 45.6168 104.059 44.322 104.059 42.8641C104.059 41.3871 104.385 40.0923 105.038 38.9797C105.69 37.8479 106.572 36.9655 107.685 36.3325C108.797 35.6995 110.035 35.383 111.397 35.383C112.778 35.383 114.025 35.6995 115.137 36.3325C116.25 36.9655 117.123 37.8479 117.756 38.9797C118.408 40.0923 118.734 41.3871 118.734 42.8641C118.734 44.3412 118.408 45.6456 117.756 46.7773C117.103 47.8899 116.221 48.7627 115.108 49.3958C113.996 50.0288 112.749 50.3453 111.368 50.3453ZM111.368 47.0075C112.001 47.0075 112.567 46.8541 113.066 46.5472C113.583 46.2402 113.996 45.7799 114.303 45.166C114.61 44.5522 114.763 43.7849 114.763 42.8641C114.763 41.9434 114.61 41.1761 114.303 40.5622C113.996 39.9484 113.583 39.488 113.066 39.1811C112.567 38.8742 112.01 38.7207 111.397 38.7207C110.802 38.7207 110.246 38.8742 109.728 39.1811C109.21 39.488 108.797 39.9484 108.491 40.5622C108.184 41.1761 108.03 41.9434 108.03 42.8641C108.03 43.7849 108.184 44.5522 108.491 45.166C108.797 45.7799 109.2 46.2402 109.699 46.5472C110.217 46.8541 110.773 47.0075 111.368 47.0075ZM130.294 50.3453C129.546 50.3453 128.865 50.2494 128.251 50.0575C127.656 49.8657 127.119 49.5876 126.639 49.2231C126.179 48.8586 125.776 48.427 125.431 47.9283H125.402L125.028 50H121.633V29.4556H125.517V37.6849C125.978 37.0519 126.592 36.5147 127.359 36.0735C128.126 35.6132 129.095 35.383 130.265 35.383C131.608 35.383 132.797 35.7091 133.833 36.3613C134.888 37.0135 135.713 37.9055 136.307 39.0372C136.902 40.1498 137.199 41.435 137.199 42.8929C137.199 44.3124 136.902 45.588 136.307 46.7198C135.713 47.8516 134.898 48.7436 133.862 49.3958C132.826 50.0288 131.637 50.3453 130.294 50.3453ZM129.344 47.0075C130.112 47.0075 130.783 46.8349 131.358 46.4896C131.953 46.1251 132.413 45.636 132.74 45.0222C133.085 44.3891 133.257 43.6698 133.257 42.8641C133.257 42.0585 133.085 41.3487 132.74 40.7349C132.413 40.1019 131.953 39.6031 131.358 39.2387C130.783 38.8742 130.112 38.692 129.344 38.692C128.577 38.692 127.896 38.8742 127.301 39.2387C126.707 39.6031 126.237 40.0923 125.891 40.7061C125.565 41.3199 125.402 42.0393 125.402 42.8641C125.402 43.6698 125.565 44.3891 125.891 45.0222C126.237 45.636 126.707 46.1251 127.301 46.4896C127.896 46.8349 128.577 47.0075 129.344 47.0075ZM140.037 50V35.7283H143.461L143.806 38.5481H143.863C144.228 37.8 144.66 37.1957 145.158 36.7353C145.676 36.275 146.261 35.9393 146.913 35.7283C147.566 35.4981 148.295 35.383 149.1 35.383V39.4976H148.036C147.422 39.4976 146.856 39.5648 146.338 39.699C145.839 39.8333 145.408 40.0539 145.043 40.3608C144.679 40.6677 144.401 41.0898 144.209 41.6269C144.017 42.1448 143.921 42.797 143.921 43.5835V50H140.037ZM158.016 50.3453C156.558 50.3453 155.263 50.0384 154.132 49.4245C153.019 48.8107 152.146 47.9475 151.513 46.8349C150.88 45.7223 150.564 44.4467 150.564 43.008C150.564 41.5118 150.871 40.1978 151.484 39.066C152.117 37.9151 152.99 37.0135 154.103 36.3613C155.235 35.7091 156.539 35.383 158.016 35.383C159.455 35.383 160.711 35.6899 161.785 36.3037C162.86 36.9176 163.704 37.7616 164.317 38.8358C164.931 39.8909 165.238 41.0898 165.238 42.4325C165.238 42.6244 165.229 42.8449 165.209 43.0943C165.209 43.3245 165.2 43.5643 165.181 43.8137H153.326V41.4254H161.296C161.239 40.5431 160.903 39.8333 160.289 39.2962C159.694 38.7591 158.946 38.4905 158.045 38.4905C157.373 38.4905 156.76 38.644 156.203 38.9509C155.647 39.2387 155.206 39.6894 154.88 40.3033C154.554 40.8979 154.391 41.646 154.391 42.5476V43.3821C154.391 44.1685 154.544 44.8495 154.851 45.425C155.158 45.9813 155.58 46.4129 156.117 46.7198C156.673 47.0267 157.297 47.1802 157.987 47.1802C158.697 47.1802 159.292 47.0267 159.771 46.7198C160.251 46.3937 160.615 45.9813 160.865 45.4825H164.807C164.538 46.3841 164.087 47.209 163.454 47.9571C162.821 48.686 162.044 49.2711 161.124 49.7123C160.203 50.1343 159.167 50.3453 158.016 50.3453ZM174.346 50V35.7283H177.741L178.058 38.0877H178.086C178.547 37.2629 179.18 36.6107 179.985 36.1311C180.791 35.6324 181.779 35.383 182.949 35.383C184.138 35.383 185.145 35.6419 185.97 36.1599C186.795 36.6586 187.419 37.3971 187.841 38.3754C188.282 39.3537 188.502 40.5622 188.502 42.0009V50H184.647V42.3462C184.647 41.1569 184.407 40.2457 183.927 39.6127C183.448 38.9797 182.681 38.6632 181.626 38.6632C180.973 38.6632 180.388 38.8262 179.87 39.1523C179.372 39.4592 178.969 39.91 178.662 40.5047C178.374 41.0802 178.23 41.7899 178.23 42.6339V50H174.346ZM198.476 50.3453C197.114 50.3453 195.876 50.0288 194.764 49.3958C193.651 48.7627 192.769 47.8803 192.117 46.7486C191.484 45.6168 191.167 44.322 191.167 42.8641C191.167 41.3871 191.493 40.0923 192.145 38.9797C192.798 37.8479 193.68 36.9655 194.793 36.3325C195.905 35.6995 197.142 35.383 198.504 35.383C199.886 35.383 201.132 35.6995 202.245 36.3325C203.358 36.9655 204.23 37.8479 204.863 38.9797C205.516 40.0923 205.842 41.3871 205.842 42.8641C205.842 44.3412 205.516 45.6456 204.863 46.7773C204.211 47.8899 203.329 48.7627 202.216 49.3958C201.104 50.0288 199.857 50.3453 198.476 50.3453ZM198.476 47.0075C199.109 47.0075 199.675 46.8541 200.173 46.5472C200.691 46.2402 201.104 45.7799 201.411 45.166C201.717 44.5522 201.871 43.7849 201.871 42.8641C201.871 41.9434 201.717 41.1761 201.411 40.5622C201.104 39.9484 200.691 39.488 200.173 39.1811C199.675 38.8742 199.118 38.7207 198.504 38.7207C197.91 38.7207 197.353 38.8742 196.836 39.1811C196.318 39.488 195.905 39.9484 195.598 40.5622C195.291 41.1761 195.138 41.9434 195.138 42.8641C195.138 43.7849 195.291 44.5522 195.598 45.166C195.905 45.7799 196.308 46.2402 196.807 46.5472C197.325 46.8541 197.881 47.0075 198.476 47.0075ZM214.639 50.3453C213.373 50.3453 212.251 50.1343 211.273 49.7123C210.314 49.2902 209.537 48.7148 208.942 47.9858C208.367 47.2377 208.031 46.3937 207.935 45.4538H211.819C211.915 45.799 212.078 46.1251 212.309 46.4321C212.539 46.7198 212.846 46.9596 213.229 47.1514C213.632 47.324 214.093 47.4104 214.61 47.4104C215.128 47.4104 215.55 47.3336 215.876 47.1802C216.203 47.0267 216.442 46.8349 216.596 46.6047C216.749 46.3745 216.826 46.1347 216.826 45.8854C216.826 45.5017 216.711 45.214 216.481 45.0222C216.251 44.8111 215.905 44.6385 215.445 44.5042C215.004 44.3508 214.476 44.1973 213.862 44.0439C213.249 43.8904 212.615 43.7178 211.963 43.5259C211.311 43.3341 210.716 43.0943 210.179 42.8066C209.661 42.4997 209.239 42.116 208.913 41.6556C208.587 41.1761 208.424 40.591 208.424 39.9004C208.424 39.0564 208.654 38.2987 209.115 37.6273C209.575 36.9368 210.237 36.3901 211.1 35.9872C211.982 35.5844 213.028 35.383 214.236 35.383C215.963 35.383 217.334 35.7762 218.351 36.5627C219.387 37.3492 219.991 38.433 220.164 39.8141H216.51C216.414 39.3537 216.164 38.9989 215.761 38.7495C215.378 38.4809 214.869 38.3467 214.236 38.3467C213.565 38.3467 213.047 38.4714 212.683 38.7207C212.337 38.9701 212.165 39.277 212.165 39.6415C212.165 39.91 212.289 40.1402 212.539 40.332C212.788 40.5239 213.133 40.6965 213.575 40.85C214.035 40.9843 214.563 41.1281 215.157 41.2816C216.193 41.531 217.123 41.7995 217.948 42.0872C218.792 42.375 219.464 42.7874 219.962 43.3245C220.461 43.8616 220.71 44.6289 220.71 45.6264C220.73 46.528 220.49 47.3336 219.991 48.0434C219.492 48.7531 218.792 49.319 217.891 49.741C216.989 50.1439 215.905 50.3453 214.639 50.3453ZM229.419 50.3453C228.153 50.3453 227.031 50.1343 226.053 49.7123C225.094 49.2902 224.317 48.7148 223.722 47.9858C223.147 47.2377 222.811 46.3937 222.715 45.4538H226.6C226.696 45.799 226.859 46.1251 227.089 46.4321C227.319 46.7198 227.626 46.9596 228.01 47.1514C228.412 47.324 228.873 47.4104 229.391 47.4104C229.909 47.4104 230.331 47.3336 230.657 47.1802C230.983 47.0267 231.223 46.8349 231.376 46.6047C231.53 46.3745 231.606 46.1347 231.606 45.8854C231.606 45.5017 231.491 45.214 231.261 45.0222C231.031 44.8111 230.685 44.6385 230.225 44.5042C229.784 44.3508 229.256 44.1973 228.643 44.0439C228.029 43.8904 227.396 43.7178 226.743 43.5259C226.091 43.3341 225.497 43.0943 224.96 42.8066C224.442 42.4997 224.02 42.116 223.693 41.6556C223.367 41.1761 223.204 40.591 223.204 39.9004C223.204 39.0564 223.435 38.2987 223.895 37.6273C224.355 36.9368 225.017 36.3901 225.88 35.9872C226.763 35.5844 227.808 35.383 229.017 35.383C230.743 35.383 232.115 35.7762 233.131 36.5627C234.167 37.3492 234.771 38.433 234.944 39.8141H231.29C231.194 39.3537 230.944 38.9989 230.542 38.7495C230.158 38.4809 229.65 38.3467 229.017 38.3467C228.345 38.3467 227.827 38.4714 227.463 38.7207C227.118 38.9701 226.945 39.277 226.945 39.6415C226.945 39.91 227.07 40.1402 227.319 40.332C227.568 40.5239 227.914 40.6965 228.355 40.85C228.815 40.9843 229.343 41.1281 229.937 41.2816C230.973 41.531 231.904 41.7995 232.728 42.0872C233.572 42.375 234.244 42.7874 234.743 43.3245C235.241 43.8616 235.491 44.6289 235.491 45.6264C235.51 46.528 235.27 47.3336 234.771 48.0434C234.273 48.7531 233.572 49.319 232.671 49.741C231.769 50.1439 230.685 50.3453 229.419 50.3453ZM245.12 50.3453C243.758 50.3453 242.521 50.0288 241.409 49.3958C240.296 48.7627 239.414 47.8803 238.761 46.7486C238.128 45.6168 237.812 44.322 237.812 42.8641C237.812 41.3871 238.138 40.0923 238.79 38.9797C239.442 37.8479 240.325 36.9655 241.437 36.3325C242.55 35.6995 243.787 35.383 245.149 35.383C246.53 35.383 247.777 35.6995 248.89 36.3325C250.002 36.9655 250.875 37.8479 251.508 38.9797C252.16 40.0923 252.486 41.3871 252.486 42.8641C252.486 44.3412 252.16 45.6456 251.508 46.7773C250.856 47.8899 249.974 48.7627 248.861 49.3958C247.748 50.0288 246.502 50.3453 245.12 50.3453ZM245.12 47.0075C245.753 47.0075 246.319 46.8541 246.818 46.5472C247.336 46.2402 247.748 45.7799 248.055 45.166C248.362 44.5522 248.516 43.7849 248.516 42.8641C248.516 41.9434 248.362 41.1761 248.055 40.5622C247.748 39.9484 247.336 39.488 246.818 39.1811C246.319 38.8742 245.763 38.7207 245.149 38.7207C244.555 38.7207 243.998 38.8742 243.48 39.1811C242.962 39.488 242.55 39.9484 242.243 40.5622C241.936 41.1761 241.783 41.9434 241.783 42.8641C241.783 43.7849 241.936 44.5522 242.243 45.166C242.55 45.7799 242.953 46.2402 243.452 46.5472C243.969 46.8541 244.526 47.0075 245.12 47.0075ZM268.237 50C267.239 50 266.357 49.8465 265.59 49.5396C264.822 49.2135 264.228 48.686 263.806 47.9571C263.403 47.209 263.201 46.1923 263.201 44.9071V38.9221H260.756V35.7283H263.201L263.633 31.8438H267.086V35.7283H270.884V38.9221H267.086V44.9646C267.086 45.6168 267.22 46.0772 267.489 46.3457C267.776 46.5951 268.275 46.7198 268.985 46.7198H270.798V50H268.237ZM273.71 50V35.7283H277.595V50H273.71ZM275.667 33.7429C274.957 33.7429 274.372 33.5319 273.912 33.1099C273.47 32.6878 273.25 32.1699 273.25 31.5561C273.25 30.9039 273.47 30.3764 273.912 29.9735C274.372 29.5515 274.957 29.3405 275.667 29.3405C276.357 29.3405 276.923 29.5515 277.364 29.9735C277.825 30.3764 278.055 30.9039 278.055 31.5561C278.055 32.1699 277.825 32.6878 277.364 33.1099C276.923 33.5319 276.357 33.7429 275.667 33.7429ZM281.095 50V35.7283H284.519L284.835 37.8H284.893C285.334 37.0327 285.938 36.438 286.706 36.016C287.473 35.594 288.365 35.383 289.382 35.383C290.091 35.383 290.744 35.4789 291.338 35.6707C291.933 35.8434 292.451 36.1311 292.892 36.5339C293.352 36.9176 293.736 37.3971 294.043 37.9726H294.072C294.609 37.1669 295.3 36.5339 296.144 36.0735C297.007 35.6132 297.985 35.383 299.078 35.383C300.287 35.383 301.313 35.6419 302.157 36.1599C303.001 36.6586 303.644 37.3971 304.085 38.3754C304.526 39.3537 304.747 40.5622 304.747 42.0009V50H300.891V42.3462C300.891 41.1569 300.661 40.2457 300.201 39.6127C299.74 38.9797 299.021 38.6632 298.043 38.6632C297.41 38.6632 296.853 38.8166 296.374 39.1236C295.894 39.4305 295.52 39.8717 295.252 40.4471C295.002 41.0226 294.878 41.7228 294.878 42.5476V50H290.993V42.3462C290.993 41.1569 290.763 40.2457 290.302 39.6127C289.842 38.9797 289.123 38.6632 288.144 38.6632C287.531 38.6632 286.984 38.8262 286.504 39.1523C286.044 39.4592 285.67 39.91 285.382 40.5047C285.114 41.0802 284.979 41.7899 284.979 42.6339V50H281.095ZM314.838 50.3453C313.38 50.3453 312.085 50.0384 310.954 49.4245C309.841 48.8107 308.968 47.9475 308.335 46.8349C307.702 45.7223 307.386 44.4467 307.386 43.008C307.386 41.5118 307.693 40.1978 308.306 39.066C308.94 37.9151 309.812 37.0135 310.925 36.3613C312.057 35.7091 313.361 35.383 314.838 35.383C316.277 35.383 317.533 35.6899 318.607 36.3037C319.682 36.9176 320.526 37.7616 321.14 38.8358C321.753 39.8909 322.06 41.0898 322.06 42.4325C322.06 42.6244 322.051 42.8449 322.032 43.0943C322.032 43.3245 322.022 43.5643 322.003 43.8137H310.148V41.4254H318.118C318.061 40.5431 317.725 39.8333 317.111 39.2962C316.517 38.7591 315.768 38.4905 314.867 38.4905C314.195 38.4905 313.582 38.644 313.025 38.9509C312.469 39.2387 312.028 39.6894 311.702 40.3033C311.376 40.8979 311.213 41.646 311.213 42.5476V43.3821C311.213 44.1685 311.366 44.8495 311.673 45.425C311.98 45.9813 312.402 46.4129 312.939 46.7198C313.495 47.0267 314.119 47.1802 314.809 47.1802C315.519 47.1802 316.114 47.0267 316.593 46.7198C317.073 46.3937 317.437 45.9813 317.687 45.4825H321.629C321.36 46.3841 320.909 47.209 320.276 47.9571C319.643 48.686 318.866 49.2711 317.946 49.7123C317.025 50.1343 315.989 50.3453 314.838 50.3453Z" fill="#FDFDFD"/>
<circle cx="45.81" cy="39.7529" r="26.1235" fill="#FEFEFE"/>
<path d="M33.0446 51.0202C31.9739 50.0216 31.1175 48.6724 30.8409 47.1759C30.5541 45.6233 30.9111 43.9662 32.1873 42.5976L35.0838 39.4915L31.977 36.5944C30.6086 35.3182 30.1367 33.6899 30.3145 32.1211C30.486 30.6091 31.2462 29.2033 32.2446 28.1326C33.2431 27.0619 34.5925 26.2056 36.0889 25.9289C37.6414 25.642 39.2986 25.9993 40.6671 27.2753C41.9104 28.4348 42.7234 30.0512 43.2733 31.6645C43.8303 33.2987 44.1647 35.07 44.3672 36.6744C44.5498 38.121 44.6278 39.467 44.6608 40.5093C44.6623 40.5629 44.6646 40.6174 44.6658 40.6729C44.6675 40.7339 44.6707 40.7937 44.672 40.8523C44.6849 41.3942 44.6851 41.8383 44.6821 42.1489C44.6806 42.3041 44.6781 42.4269 44.6761 42.5118C44.6751 42.5541 44.674 42.5875 44.6733 42.6107C44.673 42.6221 44.6724 42.6311 44.6722 42.6377L44.6726 42.6488L44.6719 42.6495L44.6298 42.6489C44.6189 42.8291 44.6061 43.0129 44.5903 43.1996C44.3815 45.6633 43.6874 48.9487 41.5064 51.2878C40.2302 52.6563 38.602 53.1281 37.0331 52.9503C35.521 52.7788 34.1153 52.0186 33.0446 51.0202ZM35.2171 48.6904C35.8936 49.3212 36.6883 49.7051 37.3918 49.7849C38.0386 49.8583 38.6424 49.6882 39.1766 49.1153C40.6162 47.5713 41.226 45.1761 41.4163 42.9304C41.5085 41.8418 41.4966 40.8599 41.4609 40.1505C41.4431 39.7972 41.4194 39.5143 41.4009 39.3241C41.3917 39.2292 41.3836 39.1565 41.3783 39.1107C41.3756 39.0883 41.3736 39.072 41.3724 39.0626C41.3719 39.0583 41.3716 39.0551 41.3714 39.0536L41.3983 39.0506C41.3547 38.4319 41.294 37.7638 41.2069 37.0736C41.02 35.5925 40.7211 34.0516 40.258 32.6929C39.7878 31.3135 39.1925 30.256 38.4946 29.6051C37.9218 29.071 37.3074 28.9433 36.6674 29.0615C35.9713 29.1904 35.2051 29.6288 34.5744 30.3051C33.9437 30.9816 33.5597 31.7763 33.4799 32.4798C33.4065 33.1265 33.5768 33.7304 34.1495 34.2646L39.5861 39.3343L34.5171 44.7702C33.9829 45.343 33.8553 45.9573 33.9735 46.5974C34.1023 47.2936 34.5407 48.0596 35.2171 48.6904Z" fill="#215273"/>
<path d="M57.0628 51.7018C58.1336 50.7033 58.9899 49.3541 59.2665 47.8576C59.5534 46.3049 59.1963 44.6479 57.9201 43.2793L55.0236 40.1732L58.1304 37.276C59.4988 35.9999 59.9707 34.3715 59.7929 32.8028C59.6214 31.2908 58.8611 29.885 57.8628 28.8142C56.8643 27.7435 55.515 26.8872 54.0186 26.6106C52.4659 26.3237 50.8089 26.6808 49.4403 27.957C48.197 29.1165 47.384 30.7328 46.8341 32.3461C46.2771 33.9804 45.9427 35.7517 45.7402 37.356C45.5602 38.7817 45.482 40.1096 45.4483 41.1454C45.4459 41.2215 45.4425 41.2995 45.4408 41.3794C45.4393 41.4317 45.4366 41.4834 45.4354 41.5339C45.4226 42.0757 45.4223 42.52 45.4253 42.8305C45.4269 42.9857 45.4293 43.1085 45.4313 43.1935C45.4323 43.2357 45.4334 43.2691 45.4341 43.2924C45.4344 43.3036 45.435 43.3128 45.4352 43.3194L45.4348 43.3304L45.4355 43.3311L45.4777 43.3305C45.4885 43.5107 45.5013 43.6945 45.5172 43.8812C45.7259 46.3449 46.42 49.6303 48.601 51.9694C49.8772 53.338 51.5054 53.8098 53.0743 53.6319C54.5864 53.4604 55.9921 52.7003 57.0628 51.7018ZM54.8903 49.372C54.2138 50.0029 53.4192 50.3868 52.7157 50.4666C52.0688 50.5399 51.465 50.3698 50.9308 49.7969C49.4912 48.2529 48.8814 45.8577 48.6911 43.612C48.5989 42.5234 48.6109 41.5416 48.6466 40.8321C48.6644 40.4788 48.688 40.196 48.7065 40.0058C48.7158 39.9108 48.7238 39.8382 48.7292 39.7924C48.7318 39.7699 48.7338 39.7537 48.735 39.7442C48.7356 39.7398 48.7358 39.7367 48.736 39.7353L48.7092 39.7323C48.7527 39.1136 48.8134 38.4454 48.9005 37.7552C49.0874 36.2741 49.3864 34.7332 49.8495 33.3745C50.3196 31.9951 50.9149 30.9376 51.6128 30.2867C52.1857 29.7526 52.7999 29.6249 53.44 29.7432C54.1362 29.872 54.9023 30.3104 55.533 30.9868C56.1637 31.6632 56.5478 32.458 56.6276 33.1614C56.7008 33.8081 56.5306 34.4121 55.9579 34.9463L50.5213 40.016L55.5903 45.4518C56.1245 46.0247 56.2522 46.6389 56.1339 47.279C56.0051 47.9753 55.5668 48.7412 54.8903 49.372Z" fill="#598163"/>
<ellipse cx="36.6736" cy="45.3916" rx="3.86795" ry="5.15727" fill="#215273"/>
<ellipse cx="36.6736" cy="33.7876" rx="3.86795" ry="5.15727" fill="#215273"/>
<ellipse cx="39.2517" cy="37.6558" rx="3.86795" ry="5.15727" fill="#215273"/>
<ellipse cx="40.5418" cy="44.1026" rx="3.86795" ry="5.15727" fill="#215273"/>
<ellipse cx="53.4353" cy="46.6812" rx="3.86795" ry="5.15727" fill="#598163"/>
<ellipse cx="49.5672" cy="42.813" rx="3.86795" ry="5.15727" fill="#598163"/>
<ellipse cx="52.1453" cy="35.0772" rx="3.86795" ry="5.15727" fill="#598163"/>
<ellipse cx="53.4353" cy="33.7876" rx="3.86795" ry="5.15727" fill="#598163"/>
<defs>
<linearGradient id="paint0_linear_490_3120" x1="0" y1="39.7531" x2="368" y2="39.7531" gradientUnits="userSpaceOnUse">
<stop stop-color="#215273"/>
<stop offset="1" stop-color="#497B5A"/>
</linearGradient>
</defs>
</svg>
