<svg width="368" height="80" viewBox="0 0 368 80" fill="none" xmlns="http://www.w3.org/2000/svg">
<rect x="2.65021" y="2.65021" width="362.7" height="74.2058" rx="37.1029" fill="url(#paint0_linear_490_3162)" stroke="#FEFEFE" stroke-width="5.30041"/>
<path d="M113.921 49.3453C111.907 49.3453 110.162 48.9137 108.685 48.0505C107.227 47.1681 106.104 45.95 105.318 44.3962C104.532 42.8233 104.138 41.0105 104.138 38.958C104.138 36.9055 104.532 35.0927 105.318 33.5198C106.104 31.9468 107.227 30.7191 108.685 29.8367C110.142 28.9543 111.888 28.5132 113.921 28.5132C116.377 28.5132 118.381 29.1174 119.935 30.3259C121.489 31.5344 122.458 33.2416 122.841 35.4476H118.583C118.333 34.3734 117.815 33.539 117.029 32.9443C116.242 32.3305 115.197 32.0235 113.893 32.0235C112.684 32.0235 111.639 32.3113 110.756 32.8867C109.893 33.443 109.231 34.2391 108.771 35.275C108.31 36.3108 108.08 37.5385 108.08 38.958C108.08 40.3775 108.31 41.6052 108.771 42.641C109.231 43.6769 109.893 44.4729 110.756 45.0292C111.639 45.5663 112.684 45.8349 113.893 45.8349C115.197 45.8349 116.242 45.5568 117.029 45.0005C117.815 44.4442 118.333 43.6577 118.583 42.641H122.841C122.477 44.7319 121.508 46.372 119.935 47.5613C118.381 48.7506 116.377 49.3453 113.921 49.3453ZM132.577 49.3453C131.216 49.3453 129.978 49.0288 128.866 48.3958C127.753 47.7627 126.871 46.8803 126.218 45.7486C125.585 44.6168 125.269 43.322 125.269 41.8641C125.269 40.3871 125.595 39.0923 126.247 37.9797C126.899 36.8479 127.782 35.9655 128.894 35.3325C130.007 34.6995 131.244 34.383 132.606 34.383C133.987 34.383 135.234 34.6995 136.347 35.3325C137.459 35.9655 138.332 36.8479 138.965 37.9797C139.617 39.0923 139.944 40.3871 139.944 41.8641C139.944 43.3412 139.617 44.6456 138.965 45.7773C138.313 46.8899 137.431 47.7627 136.318 48.3958C135.205 49.0288 133.959 49.3453 132.577 49.3453ZM132.577 46.0075C133.21 46.0075 133.776 45.8541 134.275 45.5472C134.793 45.2402 135.205 44.7799 135.512 44.166C135.819 43.5522 135.973 42.7849 135.973 41.8641C135.973 40.9434 135.819 40.1761 135.512 39.5622C135.205 38.9484 134.793 38.488 134.275 38.1811C133.776 37.8742 133.22 37.7207 132.606 37.7207C132.012 37.7207 131.455 37.8742 130.937 38.1811C130.419 38.488 130.007 38.9484 129.7 39.5622C129.393 40.1761 129.24 40.9434 129.24 41.8641C129.24 42.7849 129.393 43.5522 129.7 44.166C130.007 44.7799 130.41 45.2402 130.909 45.5472C131.427 45.8541 131.983 46.0075 132.577 46.0075ZM142.785 49V34.7283H146.209L146.525 36.8H146.583C147.024 36.0327 147.628 35.438 148.396 35.016C149.163 34.594 150.055 34.383 151.072 34.383C151.781 34.383 152.434 34.4789 153.028 34.6707C153.623 34.8434 154.141 35.1311 154.582 35.5339C155.042 35.9176 155.426 36.3971 155.733 36.9726H155.762C156.299 36.1669 156.99 35.5339 157.834 35.0735C158.697 34.6132 159.675 34.383 160.768 34.383C161.977 34.383 163.003 34.6419 163.847 35.1599C164.691 35.6586 165.334 36.3971 165.775 37.3754C166.216 38.3537 166.437 39.5622 166.437 41.0009V49H162.581V41.3462C162.581 40.1569 162.351 39.2457 161.891 38.6127C161.43 37.9797 160.711 37.6632 159.733 37.6632C159.1 37.6632 158.543 37.8166 158.064 38.1236C157.584 38.4305 157.21 38.8717 156.942 39.4471C156.692 40.0226 156.568 40.7228 156.568 41.5476V49H152.683V41.3462C152.683 40.1569 152.453 39.2457 151.992 38.6127C151.532 37.9797 150.813 37.6632 149.834 37.6632C149.221 37.6632 148.674 37.8262 148.194 38.1523C147.734 38.4592 147.36 38.91 147.072 39.5047C146.804 40.0802 146.669 40.7899 146.669 41.6339V49H142.785ZM176.384 49.3453C175.022 49.3453 173.785 49.0288 172.672 48.3958C171.56 47.7627 170.677 46.8803 170.025 45.7486C169.392 44.6168 169.076 43.322 169.076 41.8641C169.076 40.3871 169.402 39.0923 170.054 37.9797C170.706 36.8479 171.589 35.9655 172.701 35.3325C173.814 34.6995 175.051 34.383 176.413 34.383C177.794 34.383 179.041 34.6995 180.154 35.3325C181.266 35.9655 182.139 36.8479 182.772 37.9797C183.424 39.0923 183.75 40.3871 183.75 41.8641C183.75 43.3412 183.424 44.6456 182.772 45.7773C182.12 46.8899 181.237 47.7627 180.125 48.3958C179.012 49.0288 177.765 49.3453 176.384 49.3453ZM176.384 46.0075C177.017 46.0075 177.583 45.8541 178.082 45.5472C178.6 45.2402 179.012 44.7799 179.319 44.166C179.626 43.5522 179.78 42.7849 179.78 41.8641C179.78 40.9434 179.626 40.1761 179.319 39.5622C179.012 38.9484 178.6 38.488 178.082 38.1811C177.583 37.8742 177.027 37.7207 176.413 37.7207C175.818 37.7207 175.262 37.8742 174.744 38.1811C174.226 38.488 173.814 38.9484 173.507 39.5622C173.2 40.1761 173.046 40.9434 173.046 41.8641C173.046 42.7849 173.2 43.5522 173.507 44.166C173.814 44.7799 174.217 45.2402 174.715 45.5472C175.233 45.8541 175.79 46.0075 176.384 46.0075ZM193.803 49V33.3759C193.803 32.1674 194.005 31.2083 194.408 30.4985C194.81 29.7888 195.386 29.2709 196.134 28.9448C196.901 28.6187 197.784 28.4556 198.781 28.4556H200.392V31.7358H199.385C198.772 31.7358 198.33 31.8605 198.062 32.1099C197.812 32.34 197.688 32.7525 197.688 33.3471V49H193.803ZM191.847 37.9221V34.7283H200.68V37.9221H191.847ZM208.551 49.3453C207.362 49.3453 206.355 49.0959 205.53 48.5972C204.705 48.0984 204.072 47.3599 203.631 46.3816C203.189 45.3841 202.969 44.166 202.969 42.7273V34.7283H206.853V42.3821C206.853 43.5714 207.093 44.4825 207.573 45.1156C208.052 45.7486 208.81 46.0651 209.846 46.0651C210.517 46.0651 211.102 45.9116 211.601 45.6047C212.119 45.2786 212.522 44.8278 212.809 44.2523C213.097 43.6577 213.241 42.9383 213.241 42.0943V34.7283H217.125V49H213.759L213.442 46.6406H213.414C212.953 47.4654 212.311 48.1272 211.486 48.6259C210.68 49.1055 209.702 49.3453 208.551 49.3453ZM220.423 49V34.7283H223.819L224.135 37.0877H224.164C224.624 36.2629 225.257 35.6107 226.063 35.1311C226.869 34.6324 227.856 34.383 229.027 34.383C230.216 34.383 231.223 34.6419 232.048 35.1599C232.873 35.6586 233.496 36.3971 233.918 37.3754C234.359 38.3537 234.58 39.5622 234.58 41.0009V49H230.724V41.3462C230.724 40.1569 230.484 39.2457 230.005 38.6127C229.525 37.9797 228.758 37.6632 227.703 37.6632C227.051 37.6632 226.466 37.8262 225.948 38.1523C225.449 38.4592 225.046 38.91 224.739 39.5047C224.452 40.0802 224.308 40.7899 224.308 41.6339V49H220.423ZM244.754 49.3453C243.277 49.3453 241.973 49.0288 240.841 48.3958C239.71 47.7436 238.827 46.8612 238.194 45.7486C237.561 44.6168 237.245 43.322 237.245 41.8641C237.245 40.4063 237.561 39.121 238.194 38.0085C238.827 36.8767 239.71 35.9943 240.841 35.3613C241.973 34.7091 243.277 34.383 244.754 34.383C246.596 34.383 248.14 34.8625 249.387 35.8217C250.653 36.7808 251.459 38.1044 251.804 39.7924H247.689C247.536 39.121 247.181 38.6031 246.625 38.2387C246.088 37.8742 245.455 37.692 244.726 37.692C244.054 37.692 243.45 37.855 242.913 38.1811C242.395 38.5072 241.983 38.9868 241.676 39.6198C241.369 40.2336 241.215 40.9817 241.215 41.8641C241.215 42.5163 241.302 43.1014 241.474 43.6193C241.647 44.1181 241.887 44.5497 242.194 44.9141C242.52 45.2786 242.894 45.5568 243.316 45.7486C243.757 45.9404 244.227 46.0363 244.726 46.0363C245.224 46.0363 245.666 45.9596 246.049 45.8061C246.452 45.6335 246.797 45.3937 247.085 45.0868C247.392 44.7607 247.593 44.377 247.689 43.9358H251.804C251.459 45.5855 250.653 46.8995 249.387 47.8778C248.14 48.8561 246.596 49.3453 244.754 49.3453ZM254.878 49V34.7283H258.763V49H254.878ZM256.835 32.7429C256.125 32.7429 255.54 32.5319 255.08 32.1099C254.639 31.6878 254.418 31.1699 254.418 30.5561C254.418 29.9039 254.639 29.3764 255.08 28.9735C255.54 28.5515 256.125 28.3405 256.835 28.3405C257.525 28.3405 258.091 28.5515 258.533 28.9735C258.993 29.3764 259.223 29.9039 259.223 30.5561C259.223 31.1699 258.993 31.6878 258.533 32.1099C258.091 32.5319 257.525 32.7429 256.835 32.7429ZM269.14 49.3453C267.778 49.3453 266.541 49.0288 265.428 48.3958C264.316 47.7627 263.433 46.8803 262.781 45.7486C262.148 44.6168 261.831 43.322 261.831 41.8641C261.831 40.3871 262.158 39.0923 262.81 37.9797C263.462 36.8479 264.344 35.9655 265.457 35.3325C266.57 34.6995 267.807 34.383 269.169 34.383C270.55 34.383 271.797 34.6995 272.909 35.3325C274.022 35.9655 274.895 36.8479 275.528 37.9797C276.18 39.0923 276.506 40.3871 276.506 41.8641C276.506 43.3412 276.18 44.6456 275.528 45.7773C274.876 46.8899 273.993 47.7627 272.881 48.3958C271.768 49.0288 270.521 49.3453 269.14 49.3453ZM269.14 46.0075C269.773 46.0075 270.339 45.8541 270.838 45.5472C271.356 45.2402 271.768 44.7799 272.075 44.166C272.382 43.5522 272.535 42.7849 272.535 41.8641C272.535 40.9434 272.382 40.1761 272.075 39.5622C271.768 38.9484 271.356 38.488 270.838 38.1811C270.339 37.8742 269.783 37.7207 269.169 37.7207C268.574 37.7207 268.018 37.8742 267.5 38.1811C266.982 38.488 266.57 38.9484 266.263 39.5622C265.956 40.1761 265.802 40.9434 265.802 41.8641C265.802 42.7849 265.956 43.5522 266.263 44.166C266.57 44.7799 266.972 45.2402 267.471 45.5472C267.989 45.8541 268.545 46.0075 269.14 46.0075ZM279.347 49V34.7283H282.743L283.059 37.0877H283.088C283.548 36.2629 284.181 35.6107 284.987 35.1311C285.793 34.6324 286.781 34.383 287.951 34.383C289.14 34.383 290.147 34.6419 290.972 35.1599C291.797 35.6586 292.42 36.3971 292.842 37.3754C293.283 38.3537 293.504 39.5622 293.504 41.0009V49H289.648V41.3462C289.648 40.1569 289.409 39.2457 288.929 38.6127C288.449 37.9797 287.682 37.6632 286.627 37.6632C285.975 37.6632 285.39 37.8262 284.872 38.1523C284.373 38.4592 283.97 38.91 283.663 39.5047C283.376 40.0802 283.232 40.7899 283.232 41.6339V49H279.347ZM301.463 49.3453C300.274 49.3453 299.286 49.1535 298.499 48.7698C297.732 48.3862 297.157 47.8682 296.773 47.216C296.409 46.5638 296.226 45.8445 296.226 45.058C296.226 44.1756 296.447 43.4083 296.888 42.7561C297.348 42.0847 298.039 41.5572 298.96 41.1736C299.881 40.7899 301.041 40.5981 302.441 40.5981H306.038C306.038 39.9075 305.933 39.332 305.722 38.8717C305.53 38.4113 305.223 38.0756 304.801 37.8646C304.398 37.6344 303.88 37.5193 303.247 37.5193C302.499 37.5193 301.856 37.6824 301.319 38.0085C300.801 38.3346 300.485 38.8429 300.37 39.5335H296.572C296.687 38.4784 297.032 37.5673 297.607 36.8C298.202 36.0327 298.989 35.438 299.967 35.016C300.945 34.594 302.039 34.383 303.247 34.383C304.628 34.383 305.808 34.6132 306.786 35.0735C307.784 35.5147 308.551 36.1765 309.088 37.0589C309.644 37.9221 309.923 38.9772 309.923 40.224V49H306.671L306.24 46.7844H306.211C305.981 47.1873 305.702 47.5421 305.376 47.8491C305.069 48.156 304.715 48.4245 304.312 48.6547C303.928 48.8657 303.496 49.0288 303.017 49.1439C302.537 49.2781 302.019 49.3453 301.463 49.3453ZM302.499 46.3528C303.017 46.3528 303.468 46.2665 303.851 46.0939C304.254 45.902 304.59 45.6527 304.858 45.3457C305.146 45.0388 305.367 44.684 305.52 44.2811C305.693 43.8591 305.808 43.4275 305.865 42.9863H302.873C302.278 42.9863 301.789 43.063 301.406 43.2165C301.041 43.3508 300.773 43.5522 300.6 43.8207C300.427 44.0701 300.341 44.3674 300.341 44.7127C300.341 45.058 300.427 45.3553 300.6 45.6047C300.773 45.8541 301.022 46.0459 301.348 46.1802C301.674 46.2953 302.058 46.3528 302.499 46.3528Z" fill="#FDFDFD"/>
<circle cx="45.81" cy="39.7531" r="26.1235" fill="#FEFEFE"/>
<path d="M33.0446 51.0204C31.9739 50.0219 31.1175 48.6727 30.8409 47.1762C30.5541 45.6236 30.9111 43.9664 32.1873 42.5979L35.0838 39.4918L31.977 36.5946C30.6086 35.3185 30.1367 33.6901 30.3145 32.1214C30.486 30.6093 31.2462 29.2036 32.2446 28.1328C33.2431 27.0621 34.5925 26.2058 36.0889 25.9292C37.6414 25.6423 39.2986 25.9995 40.6671 27.2756C41.9104 28.4351 42.7234 30.0515 43.2733 31.6647C43.8303 33.299 44.1647 35.0703 44.3672 36.6746C44.5498 38.1212 44.6278 39.4672 44.6608 40.5095C44.6623 40.5632 44.6646 40.6177 44.6658 40.6731C44.6675 40.7341 44.6707 40.7939 44.672 40.8526C44.6849 41.3944 44.6851 41.8385 44.6821 42.1491C44.6806 42.3044 44.6781 42.4271 44.6761 42.5121C44.6751 42.5544 44.674 42.5877 44.6733 42.611C44.673 42.6223 44.6724 42.6314 44.6722 42.638L44.6726 42.649L44.6719 42.6497L44.6298 42.6491C44.6189 42.8294 44.6061 43.0131 44.5903 43.1998C44.3815 45.6635 43.6874 48.9489 41.5064 51.288C40.2302 52.6566 38.602 53.1284 37.0331 52.9505C35.521 52.779 34.1153 52.0189 33.0446 51.0204ZM35.2171 48.6906C35.8936 49.3215 36.6883 49.7053 37.3918 49.7852C38.0386 49.8585 38.6424 49.6884 39.1766 49.1155C40.6162 47.5715 41.226 45.1763 41.4163 42.9306C41.5085 41.842 41.4966 40.8602 41.4609 40.1507C41.4431 39.7975 41.4194 39.5146 41.4009 39.3244C41.3917 39.2295 41.3836 39.1568 41.3783 39.111C41.3756 39.0886 41.3736 39.0723 41.3724 39.0628C41.3719 39.0585 41.3716 39.0553 41.3714 39.0539L41.3983 39.0509C41.3547 38.4322 41.294 37.764 41.2069 37.0738C41.02 35.5927 40.7211 34.0519 40.258 32.6931C39.7878 31.3138 39.1925 30.2562 38.4946 29.6053C37.9218 29.0713 37.3074 28.9435 36.6674 29.0618C35.9713 29.1906 35.2051 29.629 34.5744 30.3054C33.9437 30.9818 33.5597 31.7766 33.4799 32.48C33.4065 33.1267 33.5768 33.7307 34.1495 34.2649L39.5861 39.3346L34.5171 44.7704C33.9829 45.3432 33.8553 45.9576 33.9735 46.5976C34.1023 47.2938 34.5407 48.0598 35.2171 48.6906Z" fill="#215273"/>
<path d="M57.0628 51.702C58.1336 50.7035 58.9899 49.3544 59.2665 47.8578C59.5534 46.3052 59.1963 44.6481 57.9201 43.2795L55.0236 40.1734L58.1304 37.2763C59.4988 36.0001 59.9707 34.3718 59.7929 32.803C59.6214 31.291 58.8611 29.8852 57.8628 28.8145C56.8643 27.7438 55.515 26.8875 54.0186 26.6108C52.4659 26.3239 50.8089 26.681 49.4403 27.9572C48.197 29.1167 47.384 30.7331 46.8341 32.3464C46.2771 33.9806 45.9427 35.7519 45.7402 37.3563C45.5602 38.7819 45.482 40.1098 45.4483 41.1456C45.4459 41.2217 45.4425 41.2997 45.4408 41.3796C45.4393 41.4319 45.4366 41.4836 45.4354 41.5342C45.4226 42.076 45.4223 42.5202 45.4253 42.8308C45.4269 42.9859 45.4293 43.1088 45.4313 43.1937C45.4323 43.2359 45.4334 43.2694 45.4341 43.2926C45.4344 43.3039 45.435 43.313 45.4352 43.3196L45.4348 43.3307L45.4355 43.3314L45.4777 43.3308C45.4885 43.511 45.5013 43.6948 45.5172 43.8815C45.7259 46.3452 46.42 49.6306 48.601 51.9697C49.8772 53.3382 51.5054 53.81 53.0743 53.6322C54.5864 53.4607 55.9921 52.7005 57.0628 51.702ZM54.8903 49.3723C54.2138 50.0031 53.4192 50.387 52.7157 50.4668C52.0688 50.5402 51.465 50.37 50.9308 49.7971C49.4912 48.2532 48.8814 45.858 48.6911 43.6123C48.5989 42.5236 48.6109 41.5419 48.6466 40.8324C48.6644 40.479 48.688 40.1963 48.7065 40.006C48.7158 39.911 48.7238 39.8384 48.7292 39.7926C48.7318 39.7701 48.7338 39.754 48.735 39.7445C48.7356 39.7401 48.7358 39.737 48.736 39.7355L48.7092 39.7325C48.7527 39.1138 48.8134 38.4457 48.9005 37.7554C49.0874 36.2744 49.3864 34.7335 49.8495 33.3748C50.3196 31.9954 50.9149 30.9379 51.6128 30.287C52.1857 29.7528 52.7999 29.6251 53.44 29.7434C54.1362 29.8723 54.9023 30.3106 55.533 30.987C56.1637 31.6635 56.5478 32.4582 56.6276 33.1617C56.7008 33.8083 56.5306 34.4124 55.9579 34.9465L50.5213 40.0162L55.5903 45.4521C56.1245 46.0249 56.2522 46.6391 56.1339 47.2793C56.0051 47.9755 55.5668 48.7415 54.8903 49.3723Z" fill="#598163"/>
<ellipse cx="36.6736" cy="45.3916" rx="3.86795" ry="5.15727" fill="#215273"/>
<ellipse cx="36.6736" cy="33.7879" rx="3.86795" ry="5.15727" fill="#215273"/>
<ellipse cx="39.2517" cy="37.6556" rx="3.86795" ry="5.15727" fill="#215273"/>
<ellipse cx="40.5418" cy="44.1026" rx="3.86795" ry="5.15727" fill="#215273"/>
<ellipse cx="53.4353" cy="46.6814" rx="3.86795" ry="5.15727" fill="#598163"/>
<ellipse cx="49.5672" cy="42.8133" rx="3.86795" ry="5.15727" fill="#598163"/>
<ellipse cx="52.1453" cy="35.0772" rx="3.86795" ry="5.15727" fill="#598163"/>
<ellipse cx="53.4353" cy="33.7879" rx="3.86795" ry="5.15727" fill="#598163"/>
<defs>
<linearGradient id="paint0_linear_490_3162" x1="0" y1="39.7531" x2="368" y2="39.7531" gradientUnits="userSpaceOnUse">
<stop stop-color="#215273"/>
<stop offset="1" stop-color="#497B5A"/>
</linearGradient>
</defs>
</svg>
